<?xml version="1.0" encoding="UTF-8" standalone="no"?>
<!-- Created with Inkscape (http://www.inkscape.org/) -->

<svg
   xmlns:dc="http://purl.org/dc/elements/1.1/"
   xmlns:cc="http://creativecommons.org/ns#"
   xmlns:rdf="http://www.w3.org/1999/02/22-rdf-syntax-ns#"
   xmlns:svg="http://www.w3.org/2000/svg"
   xmlns="http://www.w3.org/2000/svg"
   xmlns:sodipodi="http://sodipodi.sourceforge.net/DTD/sodipodi-0.dtd"
   xmlns:inkscape="http://www.inkscape.org/namespaces/inkscape"
   width="210mm"
   height="297mm"
   viewBox="0 0 210 297"
   version="1.1"
   id="svg8"
   inkscape:version="0.92.4 (5da689c313, 2019-01-14)"
   sodipodi:docname="logomarca.svg">
  <defs
     id="defs2" />
  <sodipodi:namedview
     id="base"
     pagecolor="#ffffff"
     bordercolor="#666666"
     borderopacity="1.0"
     inkscape:pageopacity="0.0"
     inkscape:pageshadow="2"
     inkscape:zoom="1.6782738"
     inkscape:cx="-1171.8923"
     inkscape:cy="-422.0709"
     inkscape:document-units="mm"
     inkscape:current-layer="layer1"
     showgrid="false"
     showguides="true"
     inkscape:guide-bbox="true"
     inkscape:window-width="1920"
     inkscape:window-height="1017"
     inkscape:window-x="-8"
     inkscape:window-y="-8"
     inkscape:window-maximized="1">
    <sodipodi:guide
       position="105.42533,242.57588"
       orientation="0,1"
       id="guide3799"
       inkscape:locked="false" />
    <sodipodi:guide
       position="-330.75404,-81.190819"
       orientation="1,0"
       id="guide4783"
       inkscape:locked="false" />
  </sodipodi:namedview>
  <metadata
     id="metadata5">
    <rdf:RDF>
      <cc:Work
         rdf:about="">
        <dc:format>image/svg+xml</dc:format>
        <dc:type
           rdf:resource="http://purl.org/dc/dcmitype/StillImage" />
        <dc:title></dc:title>
      </cc:Work>
    </rdf:RDF>
  </metadata>
  <g
     inkscape:label="Camada 1"
     inkscape:groupmode="layer"
     id="layer1">
    <text
       xml:space="preserve"
       style="font-style:normal;font-variant:normal;font-weight:normal;font-stretch:normal;font-size:42.17172241px;line-height:1.25;font-family:Verdana;-inkscape-font-specification:Verdana;letter-spacing:0px;word-spacing:0px;fill:#000000;fill-opacity:1;stroke:none;stroke-width:1.05429304"
       x="-339.67145"
       y="191.83041"
       id="text3715"
       inkscape:export-xdpi="30"
       inkscape:export-ydpi="30"><tspan
         sodipodi:role="line"
         id="tspan3713"
         x="-339.67145"
         y="191.83041"
         style="font-style:normal;font-variant:normal;font-weight:normal;font-stretch:normal;font-family:Verdana;-inkscape-font-specification:Verdana;fill:#000000;stroke-width:1.05429304">obile day</tspan></text>
    <g
       id="g3793"
       transform="matrix(0.84816854,0,0,0.84816854,99.413619,1.9114857)">
      <g
         id="g3731">
	<g
   id="g3719">
		<path
   id="path3717"
   d="M 24.192,24.505 H 8.809 c -0.276,0 -0.5,-0.224 -0.5,-0.5 v -8.122 c 0,-2.27 -1.847,-4.115 -4.116,-4.115 C 2.432,11.768 1,13.199 1,14.96 c 0,1.354 1.101,2.454 2.454,2.454 1.027,0 1.863,-0.836 1.863,-1.863 0,-0.767 -0.624,-1.391 -1.391,-1.391 -0.276,0 -0.5,-0.224 -0.5,-0.5 0,-0.276 0.224,-0.5 0.5,-0.5 1.318,0 2.391,1.072 2.391,2.391 0,1.579 -1.284,2.863 -2.863,2.863 C 1.55,18.414 0,16.864 0,14.96 c 0,-2.312 1.881,-4.192 4.192,-4.192 2.821,0 5.116,2.295 5.116,5.115 v 7.622 h 14.384 v -7.622 c 0,-2.82 2.295,-5.115 5.115,-5.115 2.312,0 4.192,1.881 4.192,4.192 0,1.904 -1.55,3.454 -3.454,3.454 -1.578,0 -2.862,-1.284 -2.862,-2.863 0,-1.318 1.072,-2.391 2.39,-2.391 0.276,0 0.5,0.224 0.5,0.5 0,0.276 -0.224,0.5 -0.5,0.5 -0.767,0 -1.39,0.624 -1.39,1.391 0,1.027 0.835,1.863 1.862,1.863 1.354,0 2.454,-1.101 2.454,-2.454 0,-1.761 -1.432,-3.192 -3.192,-3.192 -2.27,0 -4.115,1.846 -4.115,4.115 v 8.122 c 0,0.276 -0.223,0.5 -0.5,0.5 z"
   inkscape:connector-curvature="0" />

	</g>

	<path
   id="path3721"
   d="M 28.091,29.304 H 5.018 c -1.138,0 -2.063,-0.926 -2.063,-2.063 v -9.326 c 0,-0.276 0.224,-0.5 0.5,-0.5 0.276,0 0.5,0.224 0.5,0.5 v 9.326 c 0,0.586 0.478,1.063 1.063,1.063 h 23.073 c 0.586,0 1.063,-0.478 1.063,-1.063 v -9.326 c 0,-0.276 0.224,-0.5 0.5,-0.5 0.276,0 0.5,0.224 0.5,0.5 v 9.326 c 0,1.137 -0.925,2.063 -2.063,2.063 z"
   inkscape:connector-curvature="0" />

	<path
   id="path3723"
   d="M 24.192,20.271 H 8.809 c -0.276,0 -0.5,-0.224 -0.5,-0.5 0,-0.276 0.224,-0.5 0.5,-0.5 h 15.384 c 0.276,0 0.5,0.224 0.5,0.5 0,0.276 -0.224,0.5 -0.501,0.5 z"
   inkscape:connector-curvature="0" />

	<path
   id="path3725"
   d="m 8.809,30.927 c -0.276,0 -0.5,-0.224 -0.5,-0.5 V 29.2 c 0,-0.276 0.224,-0.5 0.5,-0.5 0.276,0 0.5,0.224 0.5,0.5 v 1.227 c 0,0.276 -0.224,0.5 -0.5,0.5 z"
   inkscape:connector-curvature="0" />

	<path
   id="path3727"
   d="m 24.192,30.927 c -0.276,0 -0.5,-0.224 -0.5,-0.5 V 29.2 c 0,-0.276 0.224,-0.5 0.5,-0.5 0.276,0 0.5,0.224 0.5,0.5 v 1.227 c 0,0.276 -0.223,0.5 -0.5,0.5 z"
   inkscape:connector-curvature="0" />

	<path
   id="path3729"
   d="m 27.563,11.768 c -0.276,0 -0.5,-0.224 -0.5,-0.5 V 8.009 c 0,-2.722 -2.214,-4.936 -4.936,-4.936 H 10.98 c -2.722,0 -4.936,2.214 -4.936,4.936 v 3.259 c 0,0.276 -0.224,0.5 -0.5,0.5 -0.276,0 -0.5,-0.224 -0.5,-0.5 V 8.009 c 0,-3.272 2.663,-5.936 5.936,-5.936 h 11.147 c 3.272,0 5.936,2.663 5.936,5.936 v 3.259 c 0,0.276 -0.223,0.5 -0.5,0.5 z"
   inkscape:connector-curvature="0" />

</g>
      <g
         id="g3733">
</g>
      <g
         id="g3735">
</g>
      <g
         id="g3737">
</g>
      <g
         id="g3739">
</g>
      <g
         id="g3741">
</g>
      <g
         id="g3743">
</g>
      <g
         id="g3745">
</g>
      <g
         id="g3747">
</g>
      <g
         id="g3749">
</g>
      <g
         id="g3751">
</g>
      <g
         id="g3753">
</g>
      <g
         id="g3755">
</g>
      <g
         id="g3757">
</g>
      <g
         id="g3759">
</g>
      <g
         id="g3761">
</g>
    </g>
    <text
       id="text3797"
       y="39.185822"
       x="30.930725"
       style="font-style:normal;font-variant:normal;font-weight:normal;font-stretch:normal;font-size:13.86221695px;line-height:1.25;font-family:'Californian FB';-inkscape-font-specification:'Californian FB';letter-spacing:0px;word-spacing:0px;fill:#000000;fill-opacity:1;stroke:none;stroke-width:0.34655544"
       xml:space="preserve"><tspan
         style="font-style:normal;font-variant:normal;font-weight:normal;font-stretch:normal;font-family:'Californian FB';-inkscape-font-specification:'Californian FB';stroke-width:0.34655544"
         y="39.185822"
         x="30.930725"
         id="tspan3795"
         sodipodi:role="line">M</tspan></text>
    <g
       id="g4677"
       transform="matrix(2.0994937,0,0,2.0994937,-421.87722,147.97921)"
       inkscape:export-xdpi="30"
       inkscape:export-ydpi="30">
      <g
         id="g4618">
	<g
   id="g4616">
		<g
   id="g4614">
			<path
   id="path4610"
   d="m 43.58,22.577 c -4.411,0 -8,3.589 -8,8 v 1.461 c -1.771,-0.633 -5.197,-1.461 -11,-1.461 -5.803,0 -9.228,0.828 -11,1.461 v -1.461 c 0,-4.411 -3.589,-8 -8,-8 -2.757,0 -5,2.243 -5,5 0,2.023 1.208,3.838 3.079,4.617 0.56,0.234 0.921,0.777 0.921,1.383 l 1,4 c 0,3.59 2.719,6.555 6.206,6.952 -0.821,0.392 -1.393,1.224 -1.393,2.192 0,1.348 1.092,2.438 2.438,2.438 1.346,0 2.438,-1.092 2.438,-2.438 0,-0.934 -0.532,-1.734 -1.304,-2.146 h 21.233 c -0.772,0.409 -1.304,1.211 -1.304,2.146 0,1.348 1.092,2.438 2.438,2.438 1.346,0 2.438,-1.092 2.438,-2.438 0,-0.97 -0.571,-1.802 -1.394,-2.192 3.484,-0.397 6.203,-3.362 6.203,-6.952 l 1,-4 c 0,-0.606 0.361,-1.147 0.921,-1.383 1.871,-0.778 3.079,-2.594 3.079,-4.617 10e-4,-2.757 -2.242,-5 -4.999,-5 z"
   inkscape:connector-curvature="0" />

			<path
   id="path4612"
   d="m 16.33,28.239 c 2.081,-0.38 4.79,-0.662 8.25,-0.662 3.46,0 6.169,0.282 8.25,0.662 0.786,-3.62 3.363,-6.574 6.751,-7.901 V 15 c 0,-8.284 -6.716,-15 -15.001,-15 -8.284,0 -15,6.716 -15,15 v 5.339 c 3.387,1.327 5.964,4.281 6.75,7.9 z"
   inkscape:connector-curvature="0" />

		</g>

	</g>

</g>
      <g
         id="g4620">
</g>
      <g
         id="g4622">
</g>
      <g
         id="g4624">
</g>
      <g
         id="g4626">
</g>
      <g
         id="g4628">
</g>
      <g
         id="g4630">
</g>
      <g
         id="g4632">
</g>
      <g
         id="g4634">
</g>
      <g
         id="g4636">
</g>
      <g
         id="g4638">
</g>
      <g
         id="g4640">
</g>
      <g
         id="g4642">
</g>
      <g
         id="g4644">
</g>
      <g
         id="g4646">
</g>
      <g
         id="g4648">
</g>
    </g>
    <text
       id="text4681"
       y="192.32965"
       x="-387.69864"
       style="font-style:normal;font-variant:normal;font-weight:normal;font-stretch:normal;font-size:42.17172241px;line-height:1.25;font-family:Verdana;-inkscape-font-specification:Verdana;letter-spacing:0px;word-spacing:0px;fill:#ffffff;fill-opacity:1;stroke:none;stroke-width:1.05429304"
       xml:space="preserve"
       inkscape:export-xdpi="30"
       inkscape:export-ydpi="30"><tspan
         style="font-style:normal;font-variant:normal;font-weight:normal;font-stretch:normal;font-family:Verdana;-inkscape-font-specification:Verdana;fill:#ffffff;stroke-width:1.05429304"
         y="192.32965"
         x="-387.69864"
         id="tspan4679"
         sodipodi:role="line">M</tspan></text>
    <g
       inkscape:export-ydpi="30"
       inkscape:export-xdpi="30"
       transform="matrix(2.0994937,0,0,2.0994937,-59.908064,160.59138)"
       id="g4727">
      <g
         id="g4695">
	<g
   id="g4693">
		<g
   id="g4691">
			<path
   inkscape:connector-curvature="0"
   d="m 43.58,22.577 c -4.411,0 -8,3.589 -8,8 v 1.461 c -1.771,-0.633 -5.197,-1.461 -11,-1.461 -5.803,0 -9.228,0.828 -11,1.461 v -1.461 c 0,-4.411 -3.589,-8 -8,-8 -2.757,0 -5,2.243 -5,5 0,2.023 1.208,3.838 3.079,4.617 0.56,0.234 0.921,0.777 0.921,1.383 l 1,4 c 0,3.59 2.719,6.555 6.206,6.952 -0.821,0.392 -1.393,1.224 -1.393,2.192 0,1.348 1.092,2.438 2.438,2.438 1.346,0 2.438,-1.092 2.438,-2.438 0,-0.934 -0.532,-1.734 -1.304,-2.146 h 21.233 c -0.772,0.409 -1.304,1.211 -1.304,2.146 0,1.348 1.092,2.438 2.438,2.438 1.346,0 2.438,-1.092 2.438,-2.438 0,-0.97 -0.571,-1.802 -1.394,-2.192 3.484,-0.397 6.203,-3.362 6.203,-6.952 l 1,-4 c 0,-0.606 0.361,-1.147 0.921,-1.383 1.871,-0.778 3.079,-2.594 3.079,-4.617 10e-4,-2.757 -2.242,-5 -4.999,-5 z"
   id="path4687" />

			<path
   inkscape:connector-curvature="0"
   d="m 16.33,28.239 c 2.081,-0.38 4.79,-0.662 8.25,-0.662 3.46,0 6.169,0.282 8.25,0.662 0.786,-3.62 3.363,-6.574 6.751,-7.901 V 15 c 0,-8.284 -6.716,-15 -15.001,-15 -8.284,0 -15,6.716 -15,15 v 5.339 c 3.387,1.327 5.964,4.281 6.75,7.9 z"
   id="path4689" />

		</g>

	</g>

</g>
      <g
         id="g4697">
</g>
      <g
         id="g4699">
</g>
      <g
         id="g4701">
</g>
      <g
         id="g4703">
</g>
      <g
         id="g4705">
</g>
      <g
         id="g4707">
</g>
      <g
         id="g4709">
</g>
      <g
         id="g4711">
</g>
      <g
         id="g4713">
</g>
      <g
         id="g4715">
</g>
      <g
         id="g4717">
</g>
      <g
         id="g4719">
</g>
      <g
         id="g4721">
</g>
      <g
         id="g4723">
</g>
      <g
         id="g4725">
</g>
    </g>
    <text
       inkscape:export-ydpi="30"
       inkscape:export-xdpi="30"
       xml:space="preserve"
       style="font-style:normal;font-variant:normal;font-weight:normal;font-stretch:normal;font-size:42.17172241px;line-height:1.25;font-family:Verdana;-inkscape-font-specification:Verdana;letter-spacing:0px;word-spacing:0px;fill:#ffffff;fill-opacity:1;stroke:none;stroke-width:1.05429304"
       x="-25.729483"
       y="204.94182"
       id="text4731"><tspan
         sodipodi:role="line"
         id="tspan4729"
         x="-25.729483"
         y="204.94182"
         style="font-style:normal;font-variant:normal;font-weight:normal;font-stretch:normal;font-family:Verdana;-inkscape-font-specification:Verdana;fill:#ffffff;stroke-width:1.05429304">M</tspan></text>
    <g
       id="g4773"
       transform="matrix(2.0994937,0,0,2.0994937,-382.77951,349.77387)"
       inkscape:export-xdpi="30"
       inkscape:export-ydpi="30">
      <g
         id="g4741">
	<g
   id="g4739">
		<g
   id="g4737">
			<path
   id="path4733"
   d="m 43.58,22.577 c -4.411,0 -8,3.589 -8,8 v 1.461 c -1.771,-0.633 -5.197,-1.461 -11,-1.461 -5.803,0 -9.228,0.828 -11,1.461 v -1.461 c 0,-4.411 -3.589,-8 -8,-8 -2.757,0 -5,2.243 -5,5 0,2.023 1.208,3.838 3.079,4.617 0.56,0.234 0.921,0.777 0.921,1.383 l 1,4 c 0,3.59 2.719,6.555 6.206,6.952 -0.821,0.392 -1.393,1.224 -1.393,2.192 0,1.348 1.092,2.438 2.438,2.438 1.346,0 2.438,-1.092 2.438,-2.438 0,-0.934 -0.532,-1.734 -1.304,-2.146 h 21.233 c -0.772,0.409 -1.304,1.211 -1.304,2.146 0,1.348 1.092,2.438 2.438,2.438 1.346,0 2.438,-1.092 2.438,-2.438 0,-0.97 -0.571,-1.802 -1.394,-2.192 3.484,-0.397 6.203,-3.362 6.203,-6.952 l 1,-4 c 0,-0.606 0.361,-1.147 0.921,-1.383 1.871,-0.778 3.079,-2.594 3.079,-4.617 10e-4,-2.757 -2.242,-5 -4.999,-5 z"
   inkscape:connector-curvature="0" />

			<path
   id="path4735"
   d="m 16.33,28.239 c 2.081,-0.38 4.79,-0.662 8.25,-0.662 3.46,0 6.169,0.282 8.25,0.662 0.786,-3.62 3.363,-6.574 6.751,-7.901 V 15 c 0,-8.284 -6.716,-15 -15.001,-15 -8.284,0 -15,6.716 -15,15 v 5.339 c 3.387,1.327 5.964,4.281 6.75,7.9 z"
   inkscape:connector-curvature="0" />

		</g>

	</g>

</g>
      <g
         id="g4743">
</g>
      <g
         id="g4745">
</g>
      <g
         id="g4747">
</g>
      <g
         id="g4749">
</g>
      <g
         id="g4751">
</g>
      <g
         id="g4753">
</g>
      <g
         id="g4755">
</g>
      <g
         id="g4757">
</g>
      <g
         id="g4759">
</g>
      <g
         id="g4761">
</g>
      <g
         id="g4763">
</g>
      <g
         id="g4765">
</g>
      <g
         id="g4767">
</g>
      <g
         id="g4769">
</g>
      <g
         id="g4771">
</g>
    </g>
    <text
       id="text4777"
       y="394.1243"
       x="-348.60092"
       style="font-style:normal;font-variant:normal;font-weight:normal;font-stretch:normal;font-size:42.17172241px;line-height:1.25;font-family:Verdana;-inkscape-font-specification:Verdana;letter-spacing:0px;word-spacing:0px;fill:#ffffff;fill-opacity:1;stroke:none;stroke-width:1.05429304"
       xml:space="preserve"
       inkscape:export-xdpi="30"
       inkscape:export-ydpi="30"><tspan
         style="font-style:normal;font-variant:normal;font-weight:normal;font-stretch:normal;font-family:Verdana;-inkscape-font-specification:Verdana;fill:#ffffff;stroke-width:1.05429304"
         y="394.1243"
         x="-348.60092"
         id="tspan4775"
         sodipodi:role="line">M</tspan></text>
    <text
       inkscape:export-ydpi="30"
       inkscape:export-xdpi="30"
       xml:space="preserve"
       style="font-style:normal;font-variant:normal;font-weight:normal;font-stretch:normal;font-size:12.9689188px;line-height:1.25;font-family:Verdana;-inkscape-font-specification:Verdana;letter-spacing:0px;word-spacing:0px;fill:#ffffff;fill-opacity:1;stroke:none;stroke-width:0.32422298"
       x="-366.30258"
       y="434.05402"
       id="text4781"><tspan
         sodipodi:role="line"
         id="tspan4779"
         x="-366.30258"
         y="434.05402"
         style="font-style:normal;font-variant:normal;font-weight:normal;font-stretch:normal;font-family:Verdana;-inkscape-font-specification:Verdana;fill:#ffffff;stroke-width:0.32422298">Mobile day</tspan></text>
  </g>
</svg>
